<svg xmlns="http://www.w3.org/2000/svg" viewBox="95.186 57.444 366.116 343.119" xmlns:bx="https://boxy-svg.com"><path style="stroke: rgb(1, 1, 1); fill: rgb(2, 2, 2);" d="M 152.21 84.909 H 169.058 A 23.8 23.8 0 0 1 192.858 108.709 V 356.891 H 128.41 V 108.709 A 23.8 23.8 0 0 1 152.21 84.909 Z" bx:shape="rect 128.41 84.909 64.448 271.982 23.8 23.8 0 0 1@ce92cd13"></path><path style="stroke: rgb(1, 1, 1); fill: rgb(2, 2, 2);" d="M 229.153 87.959 H 246.001 A 23.8 23.8 0 0 1 269.801 111.759 V 359.941 H 205.353 V 111.759 A 23.8 23.8 0 0 1 229.153 87.959 Z" bx:shape="rect 205.353 87.959 64.448 271.982 23.8 23.8 0 0 1@65bfc2af"></path><path style="stroke: rgb(1, 1, 1); fill: rgb(2, 2, 2);" d="M 306.097 84.682 H 322.945 A 23.8 23.8 0 0 1 346.745 108.482 V 356.664 H 282.297 V 108.482 A 23.8 23.8 0 0 1 306.097 84.682 Z" bx:shape="rect 282.297 84.682 64.448 271.982 23.8 23.8 0 0 1@8c20f6db"></path><path style="stroke: rgb(1, 1, 1); fill: rgb(2, 2, 2);" d="M 383.042 84.263 H 399.89 A 23.8 23.8 0 0 1 423.69 108.063 V 356.245 H 359.242 V 108.063 A 23.8 23.8 0 0 1 383.042 84.263 Z" bx:shape="rect 359.242 84.263 64.448 271.982 23.8 23.8 0 0 1@eb2300af"></path><rect x="107.03" y="177.742" width="343.155" height="16.311" style="fill: rgb(6, 6, 6); stroke: rgb(1, 1, 1);"></rect><rect x="103.917" y="245.202" width="343.155" height="16.311" style="fill: rgb(6, 6, 6); stroke: rgb(0, 0, 0);"></rect></svg>